<?xml version="1.0" encoding="UTF-8"?>
<svg id="Capa_2" data-name="Capa 2" xmlns="http://www.w3.org/2000/svg" width="22.27mm" height="3.08mm" viewBox="0 0 63.12 8.74">
  <defs>
    <style>
      .cls-1 {
        fill: #ee7142;
      }

      .cls-1, .cls-2 {
        stroke-width: 0px;
      }

      .cls-2 {
        fill: #fff;
      }
    </style>
  </defs>
  <g id="Capa_1-2" data-name="Capa 1">
    <g>
      <path class="cls-1" d="M0,8.57v-1.39h1.1V1.56H0V.17h3.46c1.13,0,1.99.29,2.57.86.59.57.88,1.42.88,2.55v1.58c0,1.13-.29,1.98-.88,2.55s-1.45.86-2.57.86H0ZM2.69,7.13h.79c.64,0,1.11-.17,1.4-.5s.44-.81.44-1.42v-1.68c0-.62-.15-1.09-.44-1.42s-.76-.5-1.4-.5h-.79v5.52Z"/>
      <path class="cls-1" d="M8.23,8.57V.17h5.4v1.44h-3.82v2h3.48v1.44h-3.48v2.08h3.89v1.44h-5.47Z"/>
      <path class="cls-1" d="M16.44,8.57L14.3.17h1.63l1.78,7.38h.17L19.66.17h1.63l-2.14,8.4h-2.71Z"/>
      <path class="cls-2" d="M22.3,8.57V.17h5.4v1.44h-3.82v2h3.48v1.44h-3.48v2.08h3.89v1.44h-5.47Z"/>
      <path class="cls-2" d="M28.94,8.57V.17h3.65c.53,0,.99.09,1.38.28s.7.44.91.78c.22.34.32.73.32,1.19v.14c0,.5-.12.91-.36,1.22-.24.31-.54.54-.89.68v.22c.32.02.57.13.74.33.18.2.26.47.26.81v2.75h-1.58v-2.52c0-.19-.05-.35-.15-.47-.1-.12-.27-.18-.5-.18h-2.21v3.17h-1.58ZM30.53,3.96h1.9c.38,0,.67-.1.88-.31s.32-.47.32-.81v-.12c0-.34-.1-.61-.31-.81-.21-.2-.5-.31-.89-.31h-1.9v2.35Z"/>
      <path class="cls-2" d="M38.33,8.57V1.61h-2.45V.17h6.48v1.44h-2.45v6.96h-1.58Z"/>
      <path class="cls-2" d="M43.44,8.57V.17h1.58v8.4h-1.58Z"/>
      <path class="cls-2" d="M49.8,8.74c-1.04,0-1.86-.29-2.47-.87-.61-.58-.91-1.41-.91-2.49v-2.02c0-1.08.3-1.91.91-2.49.61-.58,1.43-.87,2.47-.87s1.83.28,2.39.85.85,1.34.85,2.32v.07h-1.56v-.12c0-.5-.14-.9-.41-1.22s-.7-.48-1.27-.48-1,.17-1.32.52c-.32.34-.48.81-.48,1.4v2.06c0,.58.16,1.05.48,1.4.32.35.76.52,1.32.52s.99-.16,1.27-.49c.28-.32.41-.73.41-1.22v-.22h1.56v.17c0,.98-.28,1.76-.85,2.32-.56.56-1.36.85-2.39.85Z"/>
      <path class="cls-2" d="M54.34,8.57V.17h5.4v1.44h-3.82v2h3.48v1.44h-3.48v2.08h3.89v1.44h-5.47Z"/>
      <path class="cls-1" d="M61.99,8.74c-.33,0-.6-.11-.82-.32-.22-.21-.33-.49-.33-.82s.11-.61.33-.82c.22-.21.49-.32.82-.32s.59.11.8.32.32.49.32.82-.11.61-.32.82-.48.32-.8.32Z"/>
    </g>
  </g>
</svg>